# xmcd CD database file
#
# Track frame offsets:
#	150
#	15028
#	30555
#	44823
#	60890
#	75770
#	90177
#	103404
#	117163
#	132354
#	148603
#	164157
#	177416
#	188688
#	202996
#	218995
#	234992
#	248830
#	262796
#	276948
#	289353
#	303630
#	314613
#	326340
#	339288
#
# Disc length: 4658 seconds
#
# Revision: 1
# Processed by: cddbd v1.5.1PL0 Copyright (c) Steve Scherf et al.
# Submitted via: CDex 1.51
#
DISCID=5c123019
DTITLE=Jelly Roll Morton - Jelly Roll Blues
DYEAR=1900
DGENRE=Blues
TTITLE0=Black Bottom Stomp
TTITLE1=Smoke-House Blues
TTITLE2=The Chant
TTITLE3=Sidewalk Blues
TTITLE4=Dead Man Blues
TTITLE5=Steamboat Stomp
TTITLE6=Grandpa's Spells
TTITLE7=Original Jelly-Roll Blues
TTITLE8=Doctor Jazz Stomp
TTITLE9=Cannon Ball Blues
TTITLE10=The Pearls
TTITLE11=Mr Jelly Lord
TTITLE12=Georgia Swing
TTITLE13=Red Hot Pepper Stomp
TTITLE14=Deed Creek Blues
TTITLE15=New Orleans Stomp
TTITLE16=Tank Town Bump
TTITLE17=Mint Julep
TTITLE18=Oh, Didn't He Ramble
TTITLE19=High Society
TTITLE20=Winin' Boy Blues
TTITLE21=Climax Rag
TTITLE22=Don't You Leave Me Here
TTITLE23=West End Blues
TTITLE24=Ballin' The Jack
EXTD=
EXTT0=
EXTT1=
EXTT2=
EXTT3=
EXTT4=
EXTT5=
EXTT6=
EXTT7=
EXTT8=
EXTT9=
EXTT10=
EXTT11=
EXTT12=
EXTT13=
EXTT14=
EXTT15=
EXTT16=
EXTT17=
EXTT18=
EXTT19=
EXTT20=
EXTT21=
EXTT22=
EXTT23=
EXTT24=
PLAYORDER=
